<svg width="50" height="33" viewBox="0 0 50 33" fill="none" xmlns="http://www.w3.org/2000/svg">
<path d="M40.3125 12.4575C39.6127 8.94654 37.7033 5.78502 34.9106 3.51294C32.1178 1.24087 28.6148 -0.000809 25 3.95457e-07C18.9792 3.95457e-07 13.75 3.3825 11.1458 8.3325C8.08382 8.66009 5.2521 10.0964 3.19477 12.3653C1.13744 14.6343 -0.000357712 17.576 8.43599e-08 20.625C8.43599e-08 27.4519 5.60417 33 12.5 33H39.5833C45.3333 33 50 28.38 50 22.6875C50 17.2425 45.7292 12.8287 40.3125 12.4575Z" fill="url(#paint0_linear_15_169)"/>
<defs>
<linearGradient id="paint0_linear_15_169" x1="16" y1="3" x2="42" y2="33" gradientUnits="userSpaceOnUse">
<stop stop-color="#9FA6BD"/>
<stop offset="1" stop-color="#515A79"/>
</linearGradient>
</defs>
</svg>
