<svg width="40" height="40" viewBox="0 0 16 16" fill="none" xmlns="http://www.w3.org/2000/svg">
<path d="M4.15255 11.0259C4.21488 11.0467 4.27251 11.0795 4.32213 11.1226C4.37176 11.1657 4.4124 11.2181 4.44175 11.2769C4.4711 11.3357 4.48857 11.3997 4.49317 11.4652C4.49777 11.5308 4.4894 11.5966 4.46855 11.6589L3.96855 13.1589C3.92303 13.2799 3.83238 13.3786 3.71563 13.4343C3.59888 13.4899 3.46512 13.4981 3.34244 13.4572C3.21975 13.4163 3.11768 13.3295 3.05766 13.215C2.99764 13.1004 2.98434 12.967 3.02055 12.8429L3.52055 11.3429C3.56233 11.2171 3.65239 11.113 3.77091 11.0535C3.88943 10.9941 4.02671 10.9841 4.15255 11.0259Z" fill="#728ADB"/>
<path d="M6.65255 12.5259C6.71488 12.5467 6.77251 12.5795 6.82213 12.6226C6.87176 12.6657 6.9124 12.7181 6.94175 12.7769C6.9711 12.8357 6.98857 12.8997 6.99317 12.9652C6.99777 13.0308 6.9894 13.0966 6.96855 13.1589L6.46855 14.6589C6.42303 14.7799 6.33238 14.8786 6.21563 14.9343C6.09888 14.9899 5.96512 14.9981 5.84244 14.9572C5.71975 14.9163 5.61768 14.8295 5.55766 14.715C5.49764 14.6004 5.48434 14.467 5.52055 14.3429L6.02055 12.8429C6.06233 12.7171 6.15239 12.613 6.27091 12.5535C6.38943 12.4941 6.52671 12.4841 6.65255 12.5259Z" fill="#728ADB"/>
<path d="M10.1526 11.0259C10.2149 11.0467 10.2725 11.0795 10.3221 11.1226C10.3718 11.1657 10.4124 11.2181 10.4418 11.2769C10.4711 11.3357 10.4886 11.3997 10.4932 11.4652C10.4978 11.5308 10.4894 11.5966 10.4686 11.6589L9.96855 13.1589C9.92303 13.2799 9.83238 13.3786 9.71563 13.4343C9.59888 13.4899 9.46512 13.4981 9.34244 13.4572C9.21975 13.4163 9.11768 13.3295 9.05766 13.215C8.99764 13.1004 8.98434 12.967 9.02055 12.8429L9.52055 11.3429C9.56233 11.2171 9.65239 11.113 9.77091 11.0535C9.88943 10.9941 10.0267 10.9841 10.1526 11.0259Z" fill="#728ADB"/>
<path d="M12.6526 12.5259C12.7149 12.5467 12.7725 12.5795 12.8221 12.6226C12.8718 12.6657 12.9124 12.7181 12.9418 12.7769C12.9711 12.8357 12.9886 12.8997 12.9932 12.9652C12.9978 13.0308 12.9894 13.0966 12.9686 13.1589L12.4686 14.6589C12.4497 14.7235 12.4181 14.7836 12.3755 14.8356C12.3328 14.8877 12.2802 14.9306 12.2206 14.9618C12.161 14.993 12.0958 15.0119 12.0287 15.0173C11.9617 15.0227 11.8942 15.0145 11.8304 14.9932C11.7666 14.972 11.7078 14.938 11.6574 14.8935C11.607 14.849 11.5661 14.7947 11.5372 14.734C11.5082 14.6733 11.4919 14.6073 11.489 14.5401C11.4861 14.4729 11.4969 14.4059 11.5206 14.3429L12.0206 12.8429C12.0623 12.7171 12.1524 12.613 12.2709 12.5535C12.3894 12.4941 12.5267 12.4841 12.6526 12.5259Z" fill="#728ADB"/>
<path d="M13.3996 4.0279C13.1919 2.98106 12.6548 2.02811 11.8668 1.30838C11.0787 0.588647 10.0811 0.139885 9.01979 0.0277079C7.95847 -0.0844693 6.88909 0.145821 5.96801 0.684909C5.04694 1.224 4.32248 2.04361 3.90055 3.0239C3.42739 2.96939 2.94808 3.01203 2.49197 3.14921C2.03586 3.28638 1.61255 3.51521 1.24795 3.82168C0.88335 4.12814 0.585139 4.5058 0.371573 4.93153C0.158007 5.35725 0.0335803 5.82209 0.00591111 6.29758C-0.0217581 6.77307 0.0479124 7.2492 0.210657 7.69682C0.373402 8.14445 0.625796 8.55415 0.952386 8.90083C1.27898 9.24752 1.67289 9.5239 2.11001 9.71306C2.54713 9.90221 3.01826 10.0002 3.49455 10.0009H12.9946C13.7557 10.0018 14.4886 9.71332 15.045 9.19397C15.6014 8.67463 15.9396 7.96322 15.9911 7.20385C16.0426 6.44448 15.8035 5.69393 15.3223 5.10424C14.8412 4.51454 14.1538 4.12978 13.3996 4.0279Z" fill="url(#paint0_linear_121_7)"/>
<defs>
<linearGradient id="paint0_linear_121_7" x1="7.99899" y1="0" x2="8" y2="10" gradientUnits="userSpaceOnUse">
<stop stop-color="#9FA6BD"/>
<stop offset="1" stop-color="#515A79"/>
</linearGradient>
</defs>
</svg>
