<svg width="40" height="40" viewBox="0 0 16 16" fill="none" xmlns="http://www.w3.org/2000/svg">
<path d="M13.3996 4.0279C13.1919 2.98106 12.6548 2.02811 11.8668 1.30838C11.0787 0.588647 10.0811 0.139885 9.01979 0.0277079C7.95847 -0.0844693 6.88909 0.145821 5.96801 0.684909C5.04694 1.224 4.32248 2.04361 3.90055 3.0239C3.42739 2.96939 2.94808 3.01203 2.49197 3.14921C2.03586 3.28638 1.61255 3.51521 1.24795 3.82168C0.88335 4.12814 0.585139 4.5058 0.371573 4.93153C0.158007 5.35725 0.0335803 5.82209 0.00591111 6.29758C-0.0217581 6.77307 0.0479124 7.2492 0.210657 7.69682C0.373402 8.14445 0.625796 8.55415 0.952386 8.90083C1.27898 9.24752 1.67289 9.5239 2.11001 9.71306C2.54713 9.90221 3.01826 10.0002 3.49455 10.0009H12.9946C13.7557 10.0018 14.4886 9.71332 15.045 9.19397C15.6014 8.67463 15.9396 7.96322 15.9911 7.20385C16.0426 6.44448 15.8035 5.69393 15.3223 5.10424C14.8412 4.51454 14.1538 4.12978 13.3996 4.0279Z" fill="url(#paint0_linear_121_9)"/>
<path d="M2.61955 11.2509C2.68586 11.2509 2.74944 11.2772 2.79633 11.3241C2.84321 11.371 2.86955 11.4346 2.86955 11.5009V12.0709L3.37055 11.7839C3.42798 11.7529 3.49527 11.7455 3.55804 11.7634C3.62082 11.7814 3.67409 11.8231 3.70648 11.8798C3.73886 11.9365 3.7478 12.0036 3.73137 12.0668C3.71494 12.1299 3.67445 12.1842 3.61855 12.2179L3.12355 12.5009L3.61855 12.7839C3.67445 12.8176 3.71494 12.8719 3.73137 12.935C3.7478 12.9982 3.73886 13.0653 3.70648 13.122C3.67409 13.1787 3.62082 13.2204 3.55804 13.2384C3.49527 13.2563 3.42798 13.2489 3.37055 13.2179L2.86955 12.9319V13.5009C2.86955 13.5672 2.84321 13.6308 2.79633 13.6777C2.74944 13.7246 2.68586 13.7509 2.61955 13.7509C2.55325 13.7509 2.48966 13.7246 2.44278 13.6777C2.39589 13.6308 2.36955 13.5672 2.36955 13.5009V12.9309L1.86855 13.2179C1.81112 13.2489 1.74383 13.2563 1.68106 13.2384C1.61829 13.2204 1.56502 13.1787 1.53263 13.122C1.50024 13.0653 1.49131 12.9982 1.50774 12.935C1.52417 12.8719 1.56466 12.8176 1.62055 12.7839L2.11555 12.5009L1.62055 12.2179C1.56466 12.1842 1.52417 12.1299 1.50774 12.0668C1.49131 12.0036 1.50024 11.9365 1.53263 11.8798C1.56502 11.8231 1.61829 11.7814 1.68106 11.7634C1.74383 11.7455 1.81112 11.7529 1.86855 11.7839L2.36955 12.0699V11.5009C2.36955 11.4346 2.39589 11.371 2.44278 11.3241C2.48966 11.2772 2.55325 11.2509 2.61955 11.2509Z" fill="#D0CDDB"/>
<path d="M5.36955 13.2509C5.43586 13.2509 5.49944 13.2772 5.54633 13.3241C5.59321 13.371 5.61955 13.4346 5.61955 13.5009V14.0709L6.11955 13.7839C6.1771 13.7509 6.24542 13.7421 6.30946 13.7594C6.3735 13.7768 6.42803 13.8188 6.46105 13.8764C6.49407 13.934 6.50288 14.0023 6.48553 14.0663C6.46818 14.1304 6.4261 14.1849 6.36855 14.2179L5.87355 14.5009L6.36855 14.7839C6.42445 14.8176 6.46494 14.8719 6.48137 14.935C6.4978 14.9982 6.48886 15.0653 6.45648 15.122C6.42409 15.1787 6.37082 15.2204 6.30804 15.2384C6.24527 15.2563 6.17798 15.2489 6.12055 15.2179L5.61955 14.9319V15.5009C5.61955 15.5672 5.59321 15.6308 5.54633 15.6777C5.49944 15.7246 5.43586 15.7509 5.36955 15.7509C5.30325 15.7509 5.23966 15.7246 5.19277 15.6777C5.14589 15.6308 5.11955 15.5672 5.11955 15.5009V14.9309L4.61855 15.2179C4.56112 15.2489 4.49383 15.2563 4.43106 15.2384C4.36829 15.2204 4.31502 15.1787 4.28263 15.122C4.25024 15.0653 4.24131 14.9982 4.25774 14.935C4.27417 14.8719 4.31466 14.8176 4.37055 14.7839L4.86555 14.5009L4.37055 14.2179C4.31466 14.1842 4.27417 14.1299 4.25774 14.0668C4.24131 14.0036 4.25024 13.9365 4.28263 13.8798C4.31502 13.8231 4.36829 13.7814 4.43106 13.7634C4.49383 13.7455 4.56112 13.7529 4.61855 13.7839L5.11955 14.0699V13.5009C5.11955 13.4346 5.14589 13.371 5.19277 13.3241C5.23966 13.2772 5.30325 13.2509 5.36955 13.2509Z" fill="#D0CDDB"/>
<path d="M8.11955 11.2509C8.18586 11.2509 8.24944 11.2772 8.29633 11.3241C8.34321 11.371 8.36955 11.4346 8.36955 11.5009V12.0709L8.86955 11.7839C8.9271 11.7509 8.99542 11.7421 9.05946 11.7594C9.1235 11.7768 9.17803 11.8188 9.21105 11.8764C9.24407 11.934 9.25288 12.0023 9.23553 12.0663C9.21818 12.1304 9.1761 12.1849 9.11855 12.2179L8.62355 12.5009L9.11855 12.7839C9.17445 12.8176 9.21494 12.8719 9.23137 12.935C9.2478 12.9982 9.23886 13.0653 9.20648 13.122C9.17409 13.1787 9.12082 13.2204 9.05804 13.2384C8.99527 13.2563 8.92798 13.2489 8.87055 13.2179L8.36955 12.9319V13.5009C8.36955 13.5672 8.34321 13.6308 8.29633 13.6777C8.24944 13.7246 8.18586 13.7509 8.11955 13.7509C8.05325 13.7509 7.98966 13.7246 7.94277 13.6777C7.89589 13.6308 7.86955 13.5672 7.86955 13.5009V12.9309L7.36855 13.2179C7.31112 13.2489 7.24383 13.2563 7.18106 13.2384C7.11829 13.2204 7.06502 13.1787 7.03263 13.122C7.00024 13.0653 6.99131 12.9982 7.00774 12.935C7.02417 12.8719 7.06466 12.8176 7.12055 12.7839L7.61555 12.5009L7.12055 12.2179C7.06466 12.1842 7.02417 12.1299 7.00774 12.0668C6.99131 12.0036 7.00024 11.9365 7.03263 11.8798C7.06502 11.8231 7.11829 11.7814 7.18106 11.7634C7.24383 11.7455 7.31112 11.7529 7.36855 11.7839L7.86955 12.0699V11.5009C7.86955 11.4346 7.89589 11.371 7.94277 11.3241C7.98966 11.2772 8.05325 11.2509 8.11955 11.2509Z" fill="#D0CDDB"/>
<path d="M10.8696 13.2509C10.9359 13.2509 10.9994 13.2772 11.0463 13.3241C11.0932 13.371 11.1196 13.4346 11.1196 13.5009V14.0709L11.6196 13.7839C11.648 13.7675 11.6795 13.757 11.7121 13.7528C11.7447 13.7486 11.7777 13.7508 11.8095 13.7594C11.8412 13.768 11.8709 13.7828 11.8969 13.8028C11.9229 13.8229 11.9447 13.8479 11.9611 13.8764C11.9774 13.9049 11.988 13.9363 11.9922 13.9689C11.9964 14.0015 11.9941 14.0346 11.9855 14.0663C11.9769 14.098 11.9622 14.1277 11.9421 14.1537C11.922 14.1797 11.897 14.2015 11.8686 14.2179L11.3736 14.5009L11.8686 14.7839C11.9244 14.8176 11.9649 14.8719 11.9814 14.935C11.9978 14.9982 11.9889 15.0653 11.9565 15.122C11.9241 15.1787 11.8708 15.2204 11.808 15.2384C11.7453 15.2563 11.678 15.2489 11.6206 15.2179L11.1196 14.9319V15.5009C11.1196 15.5672 11.0932 15.6308 11.0463 15.6777C10.9994 15.7246 10.9359 15.7509 10.8696 15.7509C10.8032 15.7509 10.7397 15.7246 10.6928 15.6777C10.6459 15.6308 10.6196 15.5672 10.6196 15.5009V14.9309L10.1186 15.2179C10.0611 15.2489 9.99383 15.2563 9.93106 15.2384C9.86829 15.2204 9.81501 15.1787 9.78263 15.122C9.75024 15.0653 9.74131 14.9982 9.75774 14.935C9.77417 14.8719 9.81466 14.8176 9.87055 14.7839L10.3656 14.5009L9.87055 14.2179C9.81466 14.1842 9.77417 14.1299 9.75774 14.0668C9.74131 14.0036 9.75024 13.9365 9.78263 13.8798C9.81501 13.8231 9.86829 13.7814 9.93106 13.7634C9.99383 13.7455 10.0611 13.7529 10.1186 13.7839L10.6196 14.0699V13.5009C10.6196 13.4346 10.6459 13.371 10.6928 13.3241C10.7397 13.2772 10.8032 13.2509 10.8696 13.2509Z" fill="#D0CDDB"/>
<path d="M13.6196 11.2509C13.6859 11.2509 13.7494 11.2772 13.7963 11.3241C13.8432 11.371 13.8696 11.4346 13.8696 11.5009V12.0709L14.3696 11.7839C14.4271 11.7509 14.4954 11.7421 14.5595 11.7594C14.6235 11.7768 14.678 11.8188 14.7111 11.8764C14.7441 11.934 14.7529 12.0023 14.7355 12.0663C14.7182 12.1304 14.6761 12.1849 14.6186 12.2179L14.1236 12.5009L14.6186 12.7839C14.6744 12.8176 14.7149 12.8719 14.7314 12.935C14.7478 12.9982 14.7389 13.0653 14.7065 13.122C14.6741 13.1787 14.6208 13.2204 14.558 13.2384C14.4953 13.2563 14.428 13.2489 14.3706 13.2179L13.8696 12.9319V13.5009C13.8696 13.5672 13.8432 13.6308 13.7963 13.6777C13.7494 13.7246 13.6859 13.7509 13.6196 13.7509C13.5532 13.7509 13.4897 13.7246 13.4428 13.6777C13.3959 13.6308 13.3696 13.5672 13.3696 13.5009V12.9309L12.8686 13.2179C12.84 13.2351 12.8083 13.2465 12.7753 13.2512C12.7424 13.256 12.7088 13.2542 12.6765 13.2458C12.6442 13.2374 12.614 13.2226 12.5875 13.2024C12.561 13.1821 12.5389 13.1568 12.5224 13.1279C12.5058 13.0989 12.4952 13.067 12.4912 13.0339C12.4872 13.0008 12.4899 12.9673 12.499 12.9352C12.5082 12.9032 12.5236 12.8733 12.5445 12.8473C12.5654 12.8213 12.5912 12.7997 12.6206 12.7839L13.1156 12.5009L12.6206 12.2179C12.5647 12.1842 12.5242 12.1299 12.5077 12.0668C12.4913 12.0036 12.5002 11.9365 12.5326 11.8798C12.565 11.8231 12.6183 11.7814 12.6811 11.7634C12.7438 11.7455 12.8111 11.7529 12.8686 11.7839L13.3696 12.0699V11.5009C13.3696 11.4346 13.3959 11.371 13.4428 11.3241C13.4897 11.2772 13.5532 11.2509 13.6196 11.2509Z" fill="#D0CDDB"/>
<defs>
<linearGradient id="paint0_linear_121_9" x1="7.99899" y1="0" x2="8" y2="10" gradientUnits="userSpaceOnUse">
<stop stop-color="#9FA6BD"/>
<stop offset="1" stop-color="#515A79"/>
</linearGradient>
</defs>
</svg>
