<svg width="40" height="38" viewBox="0 0 21 19" fill="none" xmlns="http://www.w3.org/2000/svg">
<path fill-rule="evenodd" clip-rule="evenodd" d="M13.6632 14.2822C13.3044 14.0937 12.9052 13.9951 12.5 13.9952H4.99995C4.73474 13.9952 4.48038 14.1005 4.29285 14.2881C4.10531 14.4756 3.99995 14.7299 3.99995 14.9952C3.99995 15.2604 4.10531 15.5147 4.29285 15.7023C4.48038 15.8898 4.73474 15.9952 4.99995 15.9952H12.5C12.581 15.9952 12.6608 16.0149 12.7325 16.0526C12.8042 16.0902 12.8657 16.1448 12.9117 16.2115C12.9577 16.2783 12.9867 16.3552 12.9964 16.4356C13.006 16.5161 12.996 16.5977 12.9671 16.6734C12.9382 16.7491 12.8914 16.8166 12.8306 16.8702C12.7698 16.9238 12.6969 16.9618 12.6182 16.981C12.5395 17.0001 12.4573 16.9999 12.3787 16.9802C12.3001 16.9606 12.2274 16.9221 12.167 16.8682L12.068 16.7902C11.8587 16.6459 11.6023 16.5867 11.3509 16.6247C11.0995 16.6627 10.8721 16.795 10.7148 16.9947C10.5575 17.1944 10.4822 17.4466 10.5041 17.6998C10.5261 17.9531 10.6436 18.1885 10.833 18.3582C11.135 18.6284 11.4981 18.8212 11.8912 18.9199C12.2843 19.0186 12.6955 19.0203 13.0893 18.9247C13.4832 18.8292 13.8479 18.6394 14.1521 18.3716C14.4562 18.1038 14.6908 17.766 14.8354 17.3874C14.98 17.0089 15.0305 16.6008 14.9824 16.1984C14.9343 15.796 14.7891 15.4113 14.5592 15.0775C14.3294 14.7437 14.0219 14.4708 13.6632 14.2822ZM11.1213 7.87384C10.5587 7.31123 9.7956 6.99516 8.99995 6.99516C8.47346 6.99507 7.9562 7.13355 7.50017 7.39667C7.04414 7.6598 6.66538 8.0383 6.40195 8.49416C6.26908 8.72371 6.23284 8.99663 6.30119 9.2529C6.36955 9.50917 6.53691 9.72779 6.76645 9.86066C6.996 9.99354 7.26893 10.0298 7.5252 9.96142C7.78146 9.89307 8.00008 9.72571 8.13295 9.49616L8.19695 9.39916C8.29867 9.26212 8.43377 9.15339 8.58939 9.08332C8.74501 9.01326 8.91598 8.98418 9.08601 8.99887C9.25605 9.01356 9.41949 9.07153 9.56079 9.16725C9.70209 9.26296 9.81654 9.39325 9.89324 9.54571C9.96995 9.69817 10.0064 9.86772 9.99901 10.0382C9.99166 10.2087 9.94079 10.3745 9.85125 10.5198C9.76171 10.6651 9.63647 10.7851 9.48746 10.8683C9.33845 10.9515 9.17062 10.9952 8.99995 10.9952H0.999954C0.734738 10.9952 0.480384 11.1005 0.292847 11.2881C0.105311 11.4756 -4.57764e-05 11.7299 -4.57764e-05 11.9952C-4.57764e-05 12.2604 0.105311 12.5147 0.292847 12.7023C0.480384 12.8898 0.734738 12.9952 0.999954 12.9952H8.99995C9.7956 12.9952 10.5587 12.6791 11.1213 12.1165C11.6839 11.5539 12 10.7908 12 9.99516C12 9.19951 11.6839 8.43645 11.1213 7.87384Z" fill="#93B0FB"/>
<path d="M9.92286 2.91506e-08C11.2453 -0.00012516 12.5363 0.402978 13.6237 1.15554C14.711 1.9081 15.5431 2.97433 16.0089 4.212C17.1661 4.52943 18.2016 5.18645 18.9817 6.09825C19.7618 7.01005 20.2507 8.13475 20.3853 9.32716C20.5199 10.5196 20.2939 11.7249 19.7366 12.7877C19.1793 13.8504 18.3162 14.7217 17.2589 15.289C17.0413 14.5134 16.6199 13.8103 16.0384 13.2529C15.457 12.6954 14.7369 12.3038 13.9529 12.119C14.5045 10.9508 14.5825 9.61442 14.1706 8.38995C13.7587 7.16548 12.8889 6.14797 11.7434 5.55065C10.5978 4.95333 9.2656 4.82257 8.02582 5.18578C6.78604 5.54899 5.73496 6.37798 5.09286 7.499C4.82839 7.95499 4.68935 8.47287 4.68986 9H1.42286C1.21286 9 1.00986 9.021 0.812858 9.062C1.31212 7.87845 2.24626 6.93143 3.42286 6.416C3.44495 4.70669 4.13951 3.07489 5.35611 1.87401C6.57271 0.673134 8.21341 -0.000142721 9.92286 2.91506e-08Z" fill="url(#paint0_linear_126_11)"/>
<defs>
<linearGradient id="paint0_linear_126_11" x1="10.2116" y1="0" x2="10.2114" y2="11.9969" gradientUnits="userSpaceOnUse">
<stop stop-color="#9FA6BD"/>
<stop offset="1" stop-color="#515A79"/>
</linearGradient>
</defs>
</svg>
